<?xml version="1.0" encoding="utf-8"?>
<!-- Generator: Adobe Illustrator 19.0.0, SVG Export Plug-In . SVG Version: 6.00 Build 0)  -->
<svg version="1.1" id="Layer_1" xmlns="http://www.w3.org/2000/svg" xmlns:xlink="http://www.w3.org/1999/xlink" x="0px" y="0px"
	 viewBox="0 0 960 960" style="enable-background:new 0 0 960 960;" xml:space="preserve">
<style type="text/css">
	.st0{stroke:#000000;stroke-miterlimit:10;}
</style>
<path id="XMLID_3_" class="st0" d="M415,408.8c0,43.7-35.4,79.1-79.1,79.1s-79.1-35.4-79.1-79.1s35.4-79.1,79.1-79.1
	S415,365.1,415,408.8z M335.9,343.9c-35.9,0-64.9,29.1-64.9,64.9s29.1,64.9,64.9,64.9s64.9-29.1,64.9-64.9S371.7,343.9,335.9,343.9z
	"/>
<path id="XMLID_12_" class="st0" d="M479.9,487.9c35.9,0,64.9,29.1,64.9,64.9c0,35.9-29.1,64.9-64.9,64.9c-17.9,0-34.2-7.3-45.9-19
	l0,0l-10,10l0,0c14.3,14.3,34.1,23.2,55.9,23.2c43.7,0,79.1-35.4,79.1-79.1c0-43.7-35.4-79.1-79.1-79.1c-35.9,0-64.9-29.1-64.9-64.9
	s29.1-64.9,64.9-64.9c17.9,0,34.2,7.3,45.9,19l0,0l10-10l0,0c-14.3-14.3-34.1-23.2-55.9-23.2c-43.7,0-79.1,35.4-79.1,79.1
	S436.2,487.9,479.9,487.9z"/>
<path id="XMLID_19_" class="st0" d="M688.9,545h-48.9v7.8v7.2H703v-7.2c0-43.7-35.4-79.1-79.1-79.1c-43.7,0-79.1,35.4-79.1,79.1
	c0,43.7,35.4,79.1,79.1,79.1c21.8,0,41.6-8.9,55.9-23.2c0,0-10-10-10-10l0,0c-11.7,11.7-28,19-45.9,19c-35.9,0-64.9-29.1-64.9-64.9
	c0-35.9,29.1-64.9,64.9-64.9c33.2,0,60.6,25,64.5,57.2L688.9,545z"/>
<path id="XMLID_6_" class="st0" d="M751,480c0,149.7-121.3,271-271,271S209,629.7,209,480s121.3-271,271-271S751,330.3,751,480z
	 M479.9,194.3c-158.2,0-286.5,128.3-286.5,286.5s128.3,286.5,286.5,286.5S766.4,639,766.4,480.8S638.1,194.3,479.9,194.3z"/>
</svg>
